<svg width="472" height="28" viewBox="0 0 472 28" fill="none" xmlns="http://www.w3.org/2000/svg">
<path d="M1.35154e-05 21.9299V1.34993H10.62C11.8 1.34993 12.82 1.55993 13.68 1.97993C14.54 2.37993 15.2 2.94993 15.66 3.68993C16.14 4.42993 16.38 5.30993 16.38 6.32993C16.38 7.10993 16.24 7.82993 15.96 8.48993C15.68 9.14993 15.29 9.69993 14.79 10.1399C14.29 10.5799 13.72 10.9099 13.08 11.1299V11.2499C13.8 11.4099 14.45 11.6999 15.03 12.1199C15.61 12.5399 16.07 13.0999 16.41 13.7999C16.77 14.4799 16.95 15.3199 16.95 16.3199C16.95 17.6599 16.67 18.7399 16.11 19.5599C15.55 20.3799 14.8 20.9799 13.86 21.3599C12.92 21.7399 11.84 21.9299 10.62 21.9299H1.35154e-05ZM2.85001 19.4699H10.59C11.61 19.4699 12.44 19.2099 13.08 18.6899C13.72 18.1499 14.04 17.2599 14.04 16.0199C14.04 15.2599 13.9 14.6299 13.62 14.1299C13.34 13.6099 12.93 13.2299 12.39 12.9899C11.85 12.7299 11.17 12.5999 10.35 12.5999H2.85001V19.4699ZM2.85001 10.1699H10.08C10.76 10.1699 11.35 10.0399 11.85 9.77993C12.35 9.49993 12.74 9.11993 13.02 8.63993C13.32 8.13993 13.47 7.57993 13.47 6.95993C13.47 5.87993 13.18 5.08993 12.6 4.58993C12.02 4.06993 11.25 3.80993 10.29 3.80993H2.85001V10.1699ZM25.3273 22.2899C23.8073 22.2899 22.5873 21.8999 21.6673 21.1199C20.7473 20.3399 20.2873 18.9799 20.2873 17.0399V6.14993H22.9273V16.6799C22.9273 17.3399 23.0073 17.8799 23.1673 18.2999C23.3273 18.7199 23.5573 19.0499 23.8573 19.2899C24.1573 19.5299 24.5073 19.6999 24.9073 19.7999C25.3273 19.8999 25.7773 19.9499 26.2573 19.9499C27.0173 19.9499 27.7173 19.7699 28.3573 19.4099C28.9973 19.0499 29.5173 18.5299 29.9173 17.8499C30.3373 17.1499 30.5473 16.3399 30.5473 15.4199V6.14993H33.1873V21.9299H31.0573L30.8173 19.5599H30.6073C30.1873 20.1999 29.7073 20.7199 29.1673 21.1199C28.6473 21.5199 28.0573 21.8099 27.3973 21.9899C26.7573 22.1899 26.0673 22.2899 25.3273 22.2899ZM38.633 27.3899C38.153 27.3899 37.733 27.3499 37.373 27.2699C37.033 27.2099 36.803 27.1699 36.683 27.1499V25.2299H38.003C38.483 25.2299 38.953 25.1299 39.413 24.9299C39.873 24.7299 40.303 24.3899 40.703 23.9099C41.103 23.4299 41.443 22.7699 41.723 21.9299L35.603 6.14993H38.363L41.513 14.2799C41.653 14.6599 41.813 15.1299 41.993 15.6899C42.193 16.2299 42.383 16.7899 42.563 17.3699C42.763 17.9499 42.923 18.4599 43.043 18.8999H43.223C43.303 18.5799 43.403 18.2199 43.523 17.8199C43.643 17.4199 43.763 17.0099 43.883 16.5899C44.023 16.1499 44.153 15.7399 44.273 15.3599C44.413 14.9599 44.523 14.6099 44.603 14.3099L47.273 6.14993H49.943L44.603 21.4799C44.303 22.3399 43.973 23.1299 43.613 23.8499C43.253 24.5899 42.853 25.2199 42.413 25.7399C41.973 26.2599 41.443 26.6599 40.823 26.9399C40.203 27.2399 39.473 27.3899 38.633 27.3899ZM68.4197 22.2899C66.2797 22.2899 64.4397 21.8999 62.8997 21.1199C61.3797 20.3399 60.1997 19.1599 59.3597 17.5799C58.5397 15.9999 58.1297 14.0199 58.1297 11.6399C58.1297 9.23993 58.5397 7.25993 59.3597 5.69993C60.1997 4.11993 61.3797 2.93993 62.8997 2.15993C64.4397 1.37993 66.2797 0.989931 68.4197 0.989931C70.5597 0.989931 72.3897 1.37993 73.9097 2.15993C75.4497 2.93993 76.6297 4.11993 77.4497 5.69993C78.2897 7.25993 78.7097 9.23993 78.7097 11.6399C78.7097 14.0199 78.2897 15.9999 77.4497 17.5799C76.6297 19.1599 75.4497 20.3399 73.9097 21.1199C72.3897 21.8999 70.5597 22.2899 68.4197 22.2899ZM68.4197 19.8299C69.5397 19.8299 70.5497 19.6799 71.4497 19.3799C72.3697 19.0799 73.1397 18.6099 73.7597 17.9699C74.3997 17.3099 74.8897 16.4899 75.2297 15.5099C75.5697 14.5099 75.7397 13.3299 75.7397 11.9699V11.3399C75.7397 9.95993 75.5697 8.77993 75.2297 7.79993C74.8897 6.79993 74.3997 5.97993 73.7597 5.33993C73.1397 4.67993 72.3697 4.19993 71.4497 3.89993C70.5497 3.59993 69.5397 3.44993 68.4197 3.44993C67.2797 3.44993 66.2597 3.59993 65.3597 3.89993C64.4597 4.19993 63.6897 4.67993 63.0497 5.33993C62.4097 5.97993 61.9197 6.79993 61.5797 7.79993C61.2597 8.77993 61.0997 9.95993 61.0997 11.3399V11.9699C61.0997 13.3299 61.2597 14.5099 61.5797 15.5099C61.9197 16.4899 62.4097 17.3099 63.0497 17.9699C63.6897 18.6099 64.4597 19.0799 65.3597 19.3799C66.2597 19.6799 67.2797 19.8299 68.4197 19.8299ZM82.3123 21.9299V6.14993H84.4423L84.6823 8.51993H84.8923C85.3123 7.87993 85.7823 7.35993 86.3023 6.95993C86.8423 6.55993 87.4323 6.26993 88.0723 6.08993C88.7323 5.88993 89.4323 5.78993 90.1723 5.78993C91.1723 5.78993 92.0423 5.95993 92.7823 6.29993C93.5423 6.63993 94.1323 7.18993 94.5523 7.94993C94.9923 8.70993 95.2123 9.73993 95.2123 11.0399V21.9299H92.5723V11.3999C92.5723 10.7399 92.4823 10.1999 92.3023 9.77993C92.1423 9.35993 91.9123 9.02993 91.6123 8.78993C91.3323 8.54993 90.9823 8.37993 90.5623 8.27993C90.1623 8.17993 89.7123 8.12993 89.2123 8.12993C88.4723 8.12993 87.7723 8.30993 87.1123 8.66993C86.4523 9.02993 85.9223 9.54993 85.5223 10.2299C85.1423 10.9099 84.9523 11.7199 84.9523 12.6599V21.9299H82.3123ZM105.517 22.2899C103.957 22.2899 102.637 21.9999 101.557 21.4199C100.497 20.8199 99.6866 19.9099 99.1266 18.6899C98.5866 17.4699 98.3166 15.9199 98.3166 14.0399C98.3166 12.1399 98.5866 10.5899 99.1266 9.38993C99.6866 8.16993 100.507 7.26993 101.587 6.68993C102.667 6.08993 104.017 5.78993 105.637 5.78993C107.117 5.78993 108.357 6.07993 109.357 6.65993C110.357 7.21993 111.107 8.06993 111.607 9.20993C112.127 10.3299 112.387 11.7399 112.387 13.4399V14.6999H101.047C101.087 15.9599 101.267 16.9999 101.587 17.8199C101.927 18.6199 102.427 19.2099 103.087 19.5899C103.747 19.9499 104.577 20.1299 105.577 20.1299C106.257 20.1299 106.847 20.0499 107.347 19.8899C107.867 19.7099 108.297 19.4599 108.637 19.1399C108.997 18.8199 109.267 18.4399 109.447 17.9999C109.627 17.5599 109.727 17.0799 109.747 16.5599H112.327C112.307 17.3999 112.147 18.1799 111.847 18.8999C111.547 19.5999 111.107 20.1999 110.527 20.6999C109.947 21.1999 109.237 21.5899 108.397 21.8699C107.557 22.1499 106.597 22.2899 105.517 22.2899ZM101.107 12.7199H109.657C109.657 11.8399 109.557 11.0999 109.357 10.4999C109.157 9.89993 108.867 9.40993 108.487 9.02993C108.127 8.64993 107.697 8.37993 107.197 8.21993C106.717 8.03993 106.167 7.94993 105.547 7.94993C104.627 7.94993 103.847 8.11993 103.207 8.45993C102.567 8.79993 102.077 9.31993 101.737 10.0199C101.397 10.7199 101.187 11.6199 101.107 12.7199ZM129.992 22.2899C128.872 22.2899 127.792 22.1799 126.752 21.9599C125.732 21.7399 124.822 21.3899 124.022 20.9099C123.222 20.4099 122.582 19.7699 122.102 18.9899C121.642 18.2099 121.412 17.2499 121.412 16.1099C121.412 16.0099 121.412 15.9099 121.412 15.8099C121.432 15.7099 121.442 15.6099 121.442 15.5099H124.322C124.322 15.5699 124.312 15.6699 124.292 15.8099C124.292 15.9299 124.292 16.0399 124.292 16.1399C124.292 16.9399 124.532 17.6199 125.012 18.1799C125.492 18.7399 126.152 19.1599 126.992 19.4399C127.852 19.6999 128.822 19.8299 129.902 19.8299C130.382 19.8299 130.882 19.7999 131.402 19.7399C131.942 19.6799 132.452 19.5799 132.932 19.4399C133.432 19.2799 133.872 19.0799 134.252 18.8399C134.652 18.5799 134.962 18.2699 135.182 17.9099C135.422 17.5299 135.542 17.0699 135.542 16.5299C135.542 15.8499 135.342 15.2899 134.942 14.8499C134.562 14.3899 134.052 14.0199 133.412 13.7399C132.772 13.4399 132.042 13.1799 131.222 12.9599C130.422 12.7199 129.592 12.4899 128.732 12.2699C127.872 12.0499 127.032 11.7999 126.212 11.5199C125.412 11.2199 124.692 10.8599 124.052 10.4399C123.412 9.99993 122.892 9.45993 122.492 8.81993C122.112 8.17993 121.922 7.39993 121.922 6.47993C121.922 5.61993 122.092 4.84993 122.432 4.16993C122.792 3.48993 123.312 2.91993 123.992 2.45993C124.692 1.97993 125.552 1.61993 126.572 1.37993C127.592 1.11993 128.762 0.989931 130.082 0.989931C131.162 0.989931 132.162 1.10993 133.082 1.34993C134.022 1.56993 134.842 1.91993 135.542 2.39993C136.262 2.85993 136.822 3.44993 137.222 4.16993C137.622 4.88993 137.822 5.75993 137.822 6.77993V7.13993H135.002V6.68993C135.002 6.00993 134.792 5.42993 134.372 4.94993C133.952 4.46993 133.372 4.09993 132.632 3.83993C131.912 3.57993 131.092 3.44993 130.172 3.44993C128.972 3.44993 127.972 3.56993 127.172 3.80993C126.372 4.02993 125.772 4.35993 125.372 4.79993C124.992 5.21993 124.802 5.69993 124.802 6.23993C124.802 6.85993 124.992 7.37993 125.372 7.79993C125.772 8.21993 126.292 8.56993 126.932 8.84993C127.572 9.10993 128.302 9.34993 129.122 9.56993C129.942 9.78993 130.772 10.0199 131.612 10.2599C132.472 10.4799 133.302 10.7399 134.102 11.0399C134.922 11.3199 135.652 11.6799 136.292 12.1199C136.952 12.5399 137.472 13.0799 137.852 13.7399C138.232 14.3799 138.422 15.1699 138.422 16.1099C138.422 17.5699 138.062 18.7599 137.342 19.6799C136.622 20.5799 135.632 21.2399 134.372 21.6599C133.112 22.0799 131.652 22.2899 129.992 22.2899ZM146.997 22.2899C145.477 22.2899 144.257 21.8999 143.337 21.1199C142.417 20.3399 141.957 18.9799 141.957 17.0399V6.14993H144.597V16.6799C144.597 17.3399 144.677 17.8799 144.837 18.2999C144.997 18.7199 145.227 19.0499 145.527 19.2899C145.827 19.5299 146.177 19.6999 146.577 19.7999C146.997 19.8999 147.447 19.9499 147.927 19.9499C148.687 19.9499 149.387 19.7699 150.027 19.4099C150.667 19.0499 151.187 18.5299 151.587 17.8499C152.007 17.1499 152.217 16.3399 152.217 15.4199V6.14993H154.857V21.9299H152.727L152.487 19.5599H152.277C151.857 20.1999 151.377 20.7199 150.837 21.1199C150.317 21.5199 149.727 21.8099 149.067 21.9899C148.427 22.1899 147.737 22.2899 146.997 22.2899ZM158.953 21.9299V6.14993H161.083L161.323 8.51993H161.533C161.953 7.87993 162.423 7.35993 162.943 6.95993C163.483 6.55993 164.073 6.26993 164.713 6.08993C165.373 5.88993 166.073 5.78993 166.813 5.78993C167.813 5.78993 168.683 5.95993 169.423 6.29993C170.183 6.63993 170.773 7.18993 171.193 7.94993C171.633 8.70993 171.853 9.73993 171.853 11.0399V21.9299H169.213V11.3999C169.213 10.7399 169.123 10.1999 168.943 9.77993C168.783 9.35993 168.553 9.02993 168.253 8.78993C167.973 8.54993 167.623 8.37993 167.203 8.27993C166.803 8.17993 166.353 8.12993 165.853 8.12993C165.113 8.12993 164.413 8.30993 163.753 8.66993C163.093 9.02993 162.563 9.54993 162.163 10.2299C161.783 10.9099 161.593 11.7199 161.593 12.6599V21.9299H158.953ZM181.227 22.2899C179.927 22.2899 178.807 21.9999 177.867 21.4199C176.947 20.8399 176.227 19.9399 175.707 18.7199C175.207 17.4799 174.957 15.8799 174.957 13.9199C174.957 12.0599 175.217 10.5299 175.737 9.32993C176.257 8.12993 176.977 7.23993 177.897 6.65993C178.817 6.07993 179.887 5.78993 181.107 5.78993C181.807 5.78993 182.457 5.86993 183.057 6.02993C183.657 6.18993 184.187 6.43993 184.647 6.77993C185.127 7.11993 185.547 7.56993 185.907 8.12993H186.087V0.23993H188.727V21.9299H186.597L186.357 19.6799H186.147C185.607 20.5599 184.907 21.2199 184.047 21.6599C183.187 22.0799 182.247 22.2899 181.227 22.2899ZM181.857 19.9799C182.857 19.9799 183.667 19.7599 184.287 19.3199C184.907 18.8799 185.357 18.2399 185.637 17.3999C185.937 16.5599 186.087 15.5199 186.087 14.2799V13.7999C186.087 12.7199 185.977 11.8099 185.757 11.0699C185.537 10.3299 185.237 9.73993 184.857 9.29993C184.477 8.85993 184.037 8.54993 183.537 8.36993C183.037 8.18993 182.507 8.09993 181.947 8.09993C180.967 8.09993 180.167 8.29993 179.547 8.69993C178.927 9.07993 178.467 9.68993 178.167 10.5299C177.867 11.3499 177.717 12.4199 177.717 13.7399V14.3699C177.717 15.7299 177.877 16.8299 178.197 17.6699C178.517 18.4899 178.977 19.0799 179.577 19.4399C180.197 19.7999 180.957 19.9799 181.857 19.9799ZM196.839 22.2899C196.259 22.2899 195.679 22.2199 195.099 22.0799C194.519 21.9399 193.979 21.7099 193.479 21.3899C192.979 21.0699 192.579 20.6299 192.279 20.0699C191.979 19.4899 191.829 18.7699 191.829 17.9099C191.829 16.8299 192.089 15.9399 192.609 15.2399C193.129 14.5399 193.849 13.9999 194.769 13.6199C195.709 13.2199 196.819 12.9499 198.099 12.8099C199.379 12.6499 200.769 12.5699 202.269 12.5699V10.7699C202.269 10.1899 202.169 9.68993 201.969 9.26993C201.769 8.84993 201.409 8.52993 200.889 8.30993C200.389 8.06993 199.669 7.94993 198.729 7.94993C197.829 7.94993 197.109 8.06993 196.569 8.30993C196.049 8.52993 195.679 8.81993 195.459 9.17993C195.259 9.53993 195.159 9.93993 195.159 10.3799V10.8299H192.609C192.589 10.7299 192.579 10.6299 192.579 10.5299C192.579 10.4299 192.579 10.3099 192.579 10.1699C192.579 9.20993 192.839 8.40993 193.359 7.76993C193.899 7.10993 194.649 6.61993 195.609 6.29993C196.569 5.95993 197.669 5.78993 198.909 5.78993C200.229 5.78993 201.329 5.97993 202.209 6.35993C203.109 6.73993 203.779 7.27993 204.219 7.97993C204.679 8.67993 204.909 9.51993 204.909 10.4999V19.0499C204.909 19.4299 204.999 19.6999 205.179 19.8599C205.359 19.9999 205.579 20.0699 205.839 20.0699H207.009V21.8099C206.729 21.9299 206.419 22.0299 206.079 22.1099C205.739 22.2099 205.349 22.2599 204.909 22.2599C204.389 22.2599 203.959 22.1499 203.619 21.9299C203.279 21.7299 203.019 21.4499 202.839 21.0899C202.659 20.7099 202.539 20.2899 202.479 19.8299H202.269C201.909 20.3299 201.449 20.7699 200.889 21.1499C200.349 21.5099 199.739 21.7899 199.059 21.9899C198.379 22.1899 197.639 22.2899 196.839 22.2899ZM197.499 20.0699C198.139 20.0699 198.739 19.9699 199.299 19.7699C199.879 19.5699 200.389 19.2899 200.829 18.9299C201.269 18.5499 201.619 18.0999 201.879 17.5799C202.139 17.0599 202.269 16.4899 202.269 15.8699V14.5499C200.649 14.5499 199.269 14.6399 198.129 14.8199C196.989 14.9999 196.109 15.3199 195.489 15.7799C194.889 16.2399 194.589 16.8899 194.589 17.7299C194.589 18.2699 194.709 18.7099 194.949 19.0499C195.189 19.3899 195.529 19.6499 195.969 19.8299C196.409 19.9899 196.919 20.0699 197.499 20.0699ZM215.526 22.2899C213.966 22.2899 212.646 21.9999 211.566 21.4199C210.506 20.8199 209.696 19.9099 209.136 18.6899C208.596 17.4699 208.326 15.9199 208.326 14.0399C208.326 12.1399 208.596 10.5899 209.136 9.38993C209.696 8.16993 210.516 7.26993 211.596 6.68993C212.676 6.08993 214.026 5.78993 215.646 5.78993C217.126 5.78993 218.366 6.07993 219.366 6.65993C220.366 7.21993 221.116 8.06993 221.616 9.20993C222.136 10.3299 222.396 11.7399 222.396 13.4399V14.6999H211.056C211.096 15.9599 211.276 16.9999 211.596 17.8199C211.936 18.6199 212.436 19.2099 213.096 19.5899C213.756 19.9499 214.586 20.1299 215.586 20.1299C216.266 20.1299 216.856 20.0499 217.356 19.8899C217.876 19.7099 218.306 19.4599 218.646 19.1399C219.006 18.8199 219.276 18.4399 219.456 17.9999C219.636 17.5599 219.736 17.0799 219.756 16.5599H222.336C222.316 17.3999 222.156 18.1799 221.856 18.8999C221.556 19.5999 221.116 20.1999 220.536 20.6999C219.956 21.1999 219.246 21.5899 218.406 21.8699C217.566 22.1499 216.606 22.2899 215.526 22.2899ZM211.116 12.7199H219.666C219.666 11.8399 219.566 11.0999 219.366 10.4999C219.166 9.89993 218.876 9.40993 218.496 9.02993C218.136 8.64993 217.706 8.37993 217.206 8.21993C216.726 8.03993 216.176 7.94993 215.556 7.94993C214.636 7.94993 213.856 8.11993 213.216 8.45993C212.576 8.79993 212.086 9.31993 211.746 10.0199C211.406 10.7199 211.196 11.6199 211.116 12.7199ZM225.962 26.3399V25.1099C226.342 25.0299 226.652 24.8399 226.892 24.5399C227.152 24.2399 227.342 23.8599 227.462 23.3999C227.582 22.9599 227.642 22.4699 227.642 21.9299H226.262V18.7799H229.172V21.5999C229.172 22.7599 229.002 23.6599 228.662 24.2999C228.342 24.9599 227.932 25.4399 227.432 25.7399C226.952 26.0399 226.462 26.2399 225.962 26.3399ZM250.032 22.2899C246.712 22.2899 244.182 21.4199 242.442 19.6799C240.722 17.9399 239.862 15.2599 239.862 11.6399C239.862 9.27993 240.262 7.30993 241.062 5.72993C241.862 4.14993 243.042 2.96993 244.602 2.18993C246.162 1.38993 248.062 0.989931 250.302 0.989931C251.702 0.989931 252.972 1.13993 254.112 1.43993C255.252 1.73993 256.232 2.19993 257.052 2.81993C257.892 3.41993 258.532 4.17993 258.972 5.09993C259.432 6.01993 259.662 7.10993 259.662 8.36993H256.752C256.752 7.48993 256.592 6.73993 256.272 6.11993C255.952 5.47993 255.492 4.95993 254.892 4.55993C254.312 4.15993 253.632 3.87993 252.852 3.71993C252.072 3.53993 251.242 3.44993 250.362 3.44993C249.162 3.44993 248.092 3.59993 247.152 3.89993C246.212 4.19993 245.422 4.66993 244.782 5.30993C244.142 5.94993 243.652 6.76993 243.312 7.76993C242.972 8.76993 242.802 9.95993 242.802 11.3399V11.9699C242.802 13.8299 243.082 15.3399 243.642 16.4999C244.222 17.6599 245.052 18.5099 246.132 19.0499C247.212 19.5699 248.512 19.8299 250.032 19.8299C251.572 19.8299 252.842 19.6199 253.842 19.1999C254.842 18.7599 255.582 18.0999 256.062 17.2199C256.562 16.3399 256.812 15.2299 256.812 13.8899V13.5299H249.552V11.0999H259.692V21.9299H257.532L257.232 19.3199C256.692 20.0199 256.052 20.5899 255.312 21.0299C254.572 21.4699 253.752 21.7899 252.852 21.9899C251.972 22.1899 251.032 22.2899 250.032 22.2899ZM270.429 22.2899C268.869 22.2899 267.549 21.9999 266.469 21.4199C265.409 20.8199 264.599 19.9099 264.039 18.6899C263.499 17.4699 263.229 15.9199 263.229 14.0399C263.229 12.1399 263.499 10.5899 264.039 9.38993C264.599 8.16993 265.419 7.26993 266.499 6.68993C267.579 6.08993 268.929 5.78993 270.549 5.78993C272.029 5.78993 273.269 6.07993 274.269 6.65993C275.269 7.21993 276.019 8.06993 276.519 9.20993C277.039 10.3299 277.299 11.7399 277.299 13.4399V14.6999H265.959C265.999 15.9599 266.179 16.9999 266.499 17.8199C266.839 18.6199 267.339 19.2099 267.999 19.5899C268.659 19.9499 269.489 20.1299 270.489 20.1299C271.169 20.1299 271.759 20.0499 272.259 19.8899C272.779 19.7099 273.209 19.4599 273.549 19.1399C273.909 18.8199 274.179 18.4399 274.359 17.9999C274.539 17.5599 274.639 17.0799 274.659 16.5599H277.239C277.219 17.3999 277.059 18.1799 276.759 18.8999C276.459 19.5999 276.019 20.1999 275.439 20.6999C274.859 21.1999 274.149 21.5899 273.309 21.8699C272.469 22.1499 271.509 22.2899 270.429 22.2899ZM266.019 12.7199H274.569C274.569 11.8399 274.469 11.0999 274.269 10.4999C274.069 9.89993 273.779 9.40993 273.399 9.02993C273.039 8.64993 272.609 8.37993 272.109 8.21993C271.629 8.03993 271.079 7.94993 270.459 7.94993C269.539 7.94993 268.759 8.11993 268.119 8.45993C267.479 8.79993 266.989 9.31993 266.649 10.0199C266.309 10.7199 266.099 11.6199 266.019 12.7199ZM284.254 22.2899C283.434 22.2899 282.794 22.1399 282.334 21.8399C281.874 21.5199 281.544 21.1099 281.344 20.6099C281.144 20.0899 281.044 19.5399 281.044 18.9599V8.36993H279.004V6.14993H281.104L281.584 1.73993H283.684V6.14993H286.654V8.36993H283.684V18.5699C283.684 19.0699 283.774 19.4499 283.954 19.7099C284.134 19.9499 284.474 20.0699 284.974 20.0699H286.654V21.8099C286.454 21.9099 286.214 21.9899 285.934 22.0499C285.654 22.1099 285.364 22.1599 285.064 22.1999C284.784 22.2599 284.514 22.2899 284.254 22.2899ZM305.49 22.2899C303.35 22.2899 301.51 21.8999 299.97 21.1199C298.45 20.3399 297.27 19.1599 296.43 17.5799C295.61 15.9999 295.2 14.0199 295.2 11.6399C295.2 9.23993 295.61 7.25993 296.43 5.69993C297.27 4.11993 298.45 2.93993 299.97 2.15993C301.51 1.37993 303.35 0.989931 305.49 0.989931C307.63 0.989931 309.46 1.37993 310.98 2.15993C312.52 2.93993 313.7 4.11993 314.52 5.69993C315.36 7.25993 315.78 9.23993 315.78 11.6399C315.78 14.0199 315.36 15.9999 314.52 17.5799C313.7 19.1599 312.52 20.3399 310.98 21.1199C309.46 21.8999 307.63 22.2899 305.49 22.2899ZM305.49 19.8299C306.61 19.8299 307.62 19.6799 308.52 19.3799C309.44 19.0799 310.21 18.6099 310.83 17.9699C311.47 17.3099 311.96 16.4899 312.3 15.5099C312.64 14.5099 312.81 13.3299 312.81 11.9699V11.3399C312.81 9.95993 312.64 8.77993 312.3 7.79993C311.96 6.79993 311.47 5.97993 310.83 5.33993C310.21 4.67993 309.44 4.19993 308.52 3.89993C307.62 3.59993 306.61 3.44993 305.49 3.44993C304.35 3.44993 303.33 3.59993 302.43 3.89993C301.53 4.19993 300.76 4.67993 300.12 5.33993C299.48 5.97993 298.99 6.79993 298.65 7.79993C298.33 8.77993 298.17 9.95993 298.17 11.3399V11.9699C298.17 13.3299 298.33 14.5099 298.65 15.5099C298.99 16.4899 299.48 17.3099 300.12 17.9699C300.76 18.6099 301.53 19.0799 302.43 19.3799C303.33 19.6799 304.35 19.8299 305.49 19.8299ZM319.383 21.9299V6.14993H321.513L321.753 8.51993H321.963C322.383 7.87993 322.853 7.35993 323.373 6.95993C323.913 6.55993 324.503 6.26993 325.143 6.08993C325.803 5.88993 326.503 5.78993 327.243 5.78993C328.243 5.78993 329.113 5.95993 329.853 6.29993C330.613 6.63993 331.203 7.18993 331.623 7.94993C332.063 8.70993 332.283 9.73993 332.283 11.0399V21.9299H329.643V11.3999C329.643 10.7399 329.553 10.1999 329.373 9.77993C329.213 9.35993 328.983 9.02993 328.683 8.78993C328.403 8.54993 328.053 8.37993 327.633 8.27993C327.233 8.17993 326.783 8.12993 326.283 8.12993C325.543 8.12993 324.843 8.30993 324.183 8.66993C323.523 9.02993 322.993 9.54993 322.593 10.2299C322.213 10.9099 322.023 11.7199 322.023 12.6599V21.9299H319.383ZM342.587 22.2899C341.027 22.2899 339.707 21.9999 338.627 21.4199C337.567 20.8199 336.757 19.9099 336.197 18.6899C335.657 17.4699 335.387 15.9199 335.387 14.0399C335.387 12.1399 335.657 10.5899 336.197 9.38993C336.757 8.16993 337.577 7.26993 338.657 6.68993C339.737 6.08993 341.087 5.78993 342.707 5.78993C344.187 5.78993 345.427 6.07993 346.427 6.65993C347.427 7.21993 348.177 8.06993 348.677 9.20993C349.197 10.3299 349.457 11.7399 349.457 13.4399V14.6999H338.117C338.157 15.9599 338.337 16.9999 338.657 17.8199C338.997 18.6199 339.497 19.2099 340.157 19.5899C340.817 19.9499 341.647 20.1299 342.647 20.1299C343.327 20.1299 343.917 20.0499 344.417 19.8899C344.937 19.7099 345.367 19.4599 345.707 19.1399C346.067 18.8199 346.337 18.4399 346.517 17.9999C346.697 17.5599 346.797 17.0799 346.817 16.5599H349.397C349.377 17.3999 349.217 18.1799 348.917 18.8999C348.617 19.5999 348.177 20.1999 347.597 20.6999C347.017 21.1999 346.307 21.5899 345.467 21.8699C344.627 22.1499 343.667 22.2899 342.587 22.2899ZM338.177 12.7199H346.727C346.727 11.8399 346.627 11.0999 346.427 10.4999C346.227 9.89993 345.937 9.40993 345.557 9.02993C345.197 8.64993 344.767 8.37993 344.267 8.21993C343.787 8.03993 343.237 7.94993 342.617 7.94993C341.697 7.94993 340.917 8.11993 340.277 8.45993C339.637 8.79993 339.147 9.31993 338.807 10.0199C338.467 10.7199 338.257 11.6199 338.177 12.7199ZM365.622 22.2899C364.182 22.2899 362.922 22.0199 361.842 21.4799C360.762 20.9399 359.922 20.1699 359.322 19.1699C358.722 18.1499 358.422 16.9399 358.422 15.5399H361.092C361.092 16.4799 361.292 17.2899 361.692 17.9699C362.092 18.6499 362.632 19.1699 363.312 19.5299C364.012 19.8899 364.782 20.0699 365.622 20.0699C366.482 20.0699 367.242 19.8999 367.902 19.5599C368.562 19.1999 369.072 18.6599 369.432 17.9399C369.812 17.2199 370.002 16.3099 370.002 15.2099C370.002 14.2099 369.832 13.3899 369.492 12.7499C369.152 12.0899 368.662 11.5999 368.022 11.2799C367.402 10.9599 366.682 10.7999 365.862 10.7999C365.262 10.7999 364.692 10.8999 364.152 11.0999C363.612 11.2799 363.122 11.5399 362.682 11.8799C362.262 12.2199 361.912 12.6399 361.632 13.1399L359.142 12.7499L360.012 1.34993H371.682V3.80993H362.322L361.842 10.2299C362.182 9.92993 362.562 9.65993 362.982 9.41993C363.422 9.15993 363.922 8.95993 364.482 8.81993C365.042 8.65993 365.682 8.57993 366.402 8.57993C367.582 8.57993 368.652 8.80993 369.612 9.26993C370.572 9.72993 371.332 10.4399 371.892 11.3999C372.452 12.3599 372.732 13.5999 372.732 15.1199C372.732 16.6199 372.442 17.9099 371.862 18.9899C371.302 20.0699 370.492 20.8899 369.432 21.4499C368.372 22.0099 367.102 22.2899 365.622 22.2899ZM382.671 22.2899C381.551 22.2899 380.551 22.1299 379.671 21.8099C378.791 21.4699 378.041 20.8999 377.421 20.0999C376.801 19.2799 376.331 18.1899 376.011 16.8299C375.691 15.4499 375.531 13.7199 375.531 11.6399C375.531 9.55993 375.691 7.83993 376.011 6.47993C376.331 5.09993 376.801 4.00993 377.421 3.20993C378.041 2.38993 378.791 1.81993 379.671 1.49993C380.551 1.15993 381.551 0.989931 382.671 0.989931C383.791 0.989931 384.781 1.15993 385.641 1.49993C386.521 1.81993 387.271 2.38993 387.891 3.20993C388.511 4.00993 388.981 5.09993 389.301 6.47993C389.621 7.83993 389.781 9.55993 389.781 11.6399C389.781 13.7199 389.621 15.4499 389.301 16.8299C388.981 18.1899 388.511 19.2799 387.891 20.0999C387.271 20.8999 386.521 21.4699 385.641 21.8099C384.781 22.1299 383.791 22.2899 382.671 22.2899ZM382.671 20.0699C383.811 20.0699 384.691 19.7799 385.311 19.1999C385.951 18.6199 386.391 17.7599 386.631 16.6199C386.891 15.4799 387.021 14.0599 387.021 12.3599V10.9799C387.021 9.25993 386.891 7.82993 386.631 6.68993C386.391 5.52993 385.951 4.65993 385.311 4.07993C384.691 3.49993 383.811 3.20993 382.671 3.20993C381.531 3.20993 380.641 3.49993 380.001 4.07993C379.361 4.65993 378.911 5.51993 378.651 6.65993C378.411 7.79993 378.291 9.22993 378.291 10.9499V12.2999C378.291 13.9999 378.411 15.4299 378.651 16.5899C378.911 17.7499 379.361 18.6199 380.001 19.1999C380.641 19.7799 381.531 20.0699 382.671 20.0699ZM396.928 21.9299L411.778 1.34993H414.178L399.298 21.9299H396.928ZM398.578 11.8199C397.638 11.8199 396.818 11.6599 396.118 11.3399C395.438 10.9999 394.918 10.4399 394.558 9.65993C394.198 8.87993 394.018 7.79993 394.018 6.41993C394.018 5.01993 394.198 3.92993 394.558 3.14993C394.918 2.36993 395.438 1.81993 396.118 1.49993C396.818 1.15993 397.638 0.989931 398.578 0.989931C399.538 0.989931 400.348 1.15993 401.008 1.49993C401.668 1.81993 402.178 2.36993 402.538 3.14993C402.918 3.92993 403.108 5.01993 403.108 6.41993C403.108 7.79993 402.918 8.88993 402.538 9.68993C402.178 10.4699 401.668 11.0199 401.008 11.3399C400.348 11.6599 399.538 11.8199 398.578 11.8199ZM398.578 10.0499C399.478 10.0499 400.078 9.74993 400.378 9.14993C400.678 8.52993 400.828 7.66993 400.828 6.56993V6.26993C400.828 5.52993 400.768 4.89993 400.648 4.37993C400.528 3.85993 400.298 3.45993 399.958 3.17993C399.638 2.89993 399.178 2.75993 398.578 2.75993C397.698 2.75993 397.098 3.06993 396.778 3.68993C396.458 4.28993 396.298 5.14993 396.298 6.26993V6.56993C396.298 7.66993 396.458 8.52993 396.778 9.14993C397.098 9.74993 397.698 10.0499 398.578 10.0499ZM412.498 22.2899C411.558 22.2899 410.748 22.1299 410.068 21.8099C409.388 21.4699 408.868 20.9099 408.508 20.1299C408.148 19.3499 407.968 18.2699 407.968 16.8899C407.968 15.4899 408.148 14.3999 408.508 13.6199C408.868 12.8399 409.388 12.2899 410.068 11.9699C410.748 11.6299 411.558 11.4599 412.498 11.4599C413.458 11.4599 414.268 11.6299 414.928 11.9699C415.608 12.2899 416.128 12.8399 416.488 13.6199C416.848 14.3999 417.028 15.4899 417.028 16.8899C417.028 18.2699 416.848 19.3599 416.488 20.1599C416.128 20.9399 415.608 21.4899 414.928 21.8099C414.268 22.1299 413.458 22.2899 412.498 22.2899ZM412.498 20.5199C413.418 20.5199 414.018 20.2199 414.298 19.6199C414.598 18.9999 414.748 18.1299 414.748 17.0099V16.7399C414.748 15.9999 414.688 15.3699 414.568 14.8499C414.448 14.3299 414.228 13.9299 413.908 13.6499C413.588 13.3699 413.118 13.2299 412.498 13.2299C411.618 13.2299 411.018 13.5399 410.698 14.1599C410.398 14.7599 410.248 15.6199 410.248 16.7399V17.0099C410.248 18.1299 410.398 18.9999 410.698 19.6199C411.018 20.2199 411.618 20.5199 412.498 20.5199ZM437.853 22.2899C435.713 22.2899 433.873 21.8999 432.333 21.1199C430.813 20.3399 429.633 19.1599 428.793 17.5799C427.973 15.9999 427.563 14.0199 427.563 11.6399C427.563 9.23993 427.973 7.25993 428.793 5.69993C429.633 4.11993 430.813 2.93993 432.333 2.15993C433.873 1.37993 435.713 0.989931 437.853 0.989931C439.993 0.989931 441.823 1.37993 443.343 2.15993C444.883 2.93993 446.063 4.11993 446.883 5.69993C447.723 7.25993 448.143 9.23993 448.143 11.6399C448.143 14.0199 447.723 15.9999 446.883 17.5799C446.063 19.1599 444.883 20.3399 443.343 21.1199C441.823 21.8999 439.993 22.2899 437.853 22.2899ZM437.853 19.8299C438.973 19.8299 439.983 19.6799 440.883 19.3799C441.803 19.0799 442.573 18.6099 443.193 17.9699C443.833 17.3099 444.323 16.4899 444.663 15.5099C445.003 14.5099 445.173 13.3299 445.173 11.9699V11.3399C445.173 9.95993 445.003 8.77993 444.663 7.79993C444.323 6.79993 443.833 5.97993 443.193 5.33993C442.573 4.67993 441.803 4.19993 440.883 3.89993C439.983 3.59993 438.973 3.44993 437.853 3.44993C436.713 3.44993 435.693 3.59993 434.793 3.89993C433.893 4.19993 433.123 4.67993 432.483 5.33993C431.843 5.97993 431.353 6.79993 431.013 7.79993C430.693 8.77993 430.533 9.95993 430.533 11.3399V11.9699C430.533 13.3299 430.693 14.5099 431.013 15.5099C431.353 16.4899 431.843 17.3099 432.483 17.9699C433.123 18.6099 433.893 19.0799 434.793 19.3799C435.693 19.6799 436.713 19.8299 437.853 19.8299ZM452.376 21.9299V8.36993H450.036V6.14993H452.376V3.62993C452.376 3.00993 452.466 2.42993 452.646 1.88993C452.826 1.32993 453.166 0.87993 453.666 0.53993C454.166 0.179931 454.866 -6.85453e-05 455.766 -6.85453e-05C456.046 -6.85453e-05 456.316 0.0199312 456.576 0.0599307C456.856 0.0799304 457.116 0.119931 457.356 0.179931C457.616 0.21993 457.846 0.26993 458.046 0.329931V2.21993H456.456C455.956 2.21993 455.586 2.34993 455.346 2.60993C455.126 2.84993 455.016 3.19993 455.016 3.65993V6.14993H460.146V3.62993C460.146 3.00993 460.236 2.42993 460.416 1.88993C460.616 1.32993 460.966 0.87993 461.466 0.53993C461.966 0.179931 462.666 -6.85453e-05 463.566 -6.85453e-05C463.826 -6.85453e-05 464.096 0.0199312 464.376 0.0599307C464.656 0.0799304 464.916 0.119931 465.156 0.179931C465.396 0.21993 465.616 0.26993 465.816 0.329931V2.21993H464.256C463.756 2.21993 463.386 2.34993 463.146 2.60993C462.906 2.84993 462.786 3.19993 462.786 3.65993V6.14993H465.816V8.36993H462.786V21.9299H460.146V8.36993H455.016V21.9299H452.376ZM469.117 16.4999L468.397 1.34993H471.547L470.827 16.4999H469.117ZM468.517 21.9299V18.7799H471.457V21.9299H468.517Z" fill="white"/>
</svg>
