<svg width="540" height="236" viewBox="0 0 540 236" fill="none" xmlns="http://www.w3.org/2000/svg">
<path d="M23.8438 103.93C25.3021 103.93 26.7422 103.656 28.1641 103.109C29.5859 102.599 30.8438 101.724 31.9375 100.484C33.0677 99.2812 33.9792 97.6953 34.6719 95.7266C35.3646 93.7578 35.7109 91.3516 35.7109 88.5078C35.7109 85.4453 34.9453 82.474 33.4141 79.5938C31.9193 76.7135 30.0234 73.888 27.7266 71.1172C25.4661 68.3099 23.0052 65.5391 20.3438 62.8047C17.7188 60.0339 15.2578 57.2266 12.9609 54.3828C10.7005 51.5026 8.80469 48.5495 7.27344 45.5234C5.77865 42.4609 5.03125 39.2708 5.03125 35.9531C5.03125 32.6354 5.63281 29.6458 6.83594 26.9844C8.07552 24.2865 9.73438 22.0078 11.8125 20.1484C13.9271 18.2526 16.3698 16.7943 19.1406 15.7734C21.9479 14.7526 24.9375 14.2422 28.1094 14.2422C31.5 14.2422 34.5078 14.6068 37.1328 15.3359C39.7943 16.0286 42.0365 16.9948 43.8594 18.2344C45.7188 19.4375 47.1224 20.8776 48.0703 22.5547C49.0182 24.1953 49.4922 25.9453 49.4922 27.8047C49.4922 28.6797 49.3646 29.5911 49.1094 30.5391C48.8542 31.4505 48.4531 32.2891 47.9062 33.0547C47.3594 33.8203 46.6667 34.4583 45.8281 34.9688C44.9896 35.4792 44.0052 35.7344 42.875 35.7344C41.526 35.7344 40.5234 35.3333 39.8672 34.5312C39.2474 33.6927 38.7734 32.6719 38.4453 31.4688C38.1536 30.2656 37.8984 28.9531 37.6797 27.5312C37.4609 26.0729 37.1146 24.7422 36.6406 23.5391C36.1667 22.3359 35.4557 21.3333 34.5078 20.5312C33.5599 19.6927 32.1745 19.2734 30.3516 19.2734C29.3672 19.2734 28.3828 19.4922 27.3984 19.9297C26.4505 20.3672 25.5755 21.0417 24.7734 21.9531C24.0078 22.8281 23.388 23.9583 22.9141 25.3438C22.4401 26.7292 22.2031 28.3698 22.2031 30.2656C22.2031 32.4531 22.6589 34.5859 23.5703 36.6641C24.4818 38.7422 25.6849 40.8021 27.1797 42.8438C28.6745 44.849 30.3698 46.8724 32.2656 48.9141C34.1979 50.9193 36.1484 52.9609 38.1172 55.0391C40.1224 57.0807 42.0729 59.1953 43.9688 61.3828C45.901 63.5339 47.6146 65.776 49.1094 68.1094C50.6042 70.4427 51.8073 72.8854 52.7188 75.4375C53.6302 77.9896 54.0859 80.6693 54.0859 83.4766C54.0859 87.5964 53.2839 91.2786 51.6797 94.5234C50.112 97.7318 47.9609 100.43 45.2266 102.617C42.5286 104.841 39.3568 106.536 35.7109 107.703C32.0651 108.87 28.1823 109.453 24.0625 109.453C20.3438 109.453 17.0443 108.979 14.1641 108.031C11.3203 107.12 8.91406 105.898 6.94531 104.367C4.97656 102.836 3.48177 101.086 2.46094 99.1172C1.47656 97.1849 0.984375 95.1797 0.984375 93.1016C0.984375 92.2266 1.11198 91.2969 1.36719 90.3125C1.65885 89.2917 2.0599 88.362 2.57031 87.5234C3.11719 86.6849 3.79167 85.9922 4.59375 85.4453C5.39583 84.862 6.32552 84.5703 7.38281 84.5703C8.47656 84.5703 9.35156 84.8438 10.0078 85.3906C10.7005 85.9375 11.2474 86.6667 11.6484 87.5781C12.0495 88.4896 12.3776 89.5286 12.6328 90.6953C12.888 91.862 13.1615 93.0469 13.4531 94.25C13.7448 95.4531 14.1094 96.638 14.5469 97.8047C14.9844 98.9714 15.5859 100.01 16.3516 100.922C17.1172 101.833 18.1016 102.562 19.3047 103.109C20.5078 103.656 22.0208 103.93 23.8438 103.93ZM112.273 86.4844C112.273 86.8125 112.292 87.1771 112.328 87.5781C112.365 87.9427 112.456 88.3073 112.602 88.6719C112.747 89 112.966 89.2734 113.258 89.4922C113.549 89.7109 113.969 89.8203 114.516 89.8203C115.208 89.8203 115.828 89.5833 116.375 89.1094C116.922 88.599 117.432 88.0885 117.906 87.5781L119.219 88.7266C118.672 89.4922 117.979 90.349 117.141 91.2969C116.339 92.2083 115.354 93.0833 114.188 93.9219C113.021 94.7604 111.69 95.4531 110.195 96C108.701 96.5833 107.005 96.875 105.109 96.875C103.505 96.875 102.102 96.6562 100.898 96.2188C99.7318 95.8177 98.7292 95.2708 97.8906 94.5781C97.0885 93.849 96.487 93.0104 96.0859 92.0625C95.6849 91.0781 95.4844 90.0391 95.4844 88.9453V86.4844C93.6615 88.4531 91.7474 90.1849 89.7422 91.6797C88.8672 92.3359 87.9375 92.974 86.9531 93.5938C85.9688 94.2135 84.9479 94.7786 83.8906 95.2891C82.8333 95.763 81.7396 96.1458 80.6094 96.4375C79.4792 96.7292 78.349 96.875 77.2188 96.875C75.0312 96.875 73.1536 96.4922 71.5859 95.7266C70.0547 94.9245 68.8151 93.8854 67.8672 92.6094C66.9193 91.3333 66.2266 89.8932 65.7891 88.2891C65.3516 86.6849 65.1328 85.0807 65.1328 83.4766V49.625C65.1328 49.2969 65.1146 48.9505 65.0781 48.5859C65.0417 48.1849 64.9505 47.8203 64.8047 47.4922C64.6589 47.1276 64.4401 46.8359 64.1484 46.6172C63.8568 46.3984 63.4375 46.2891 62.8906 46.2891C62.2344 46.2891 61.6146 46.5443 61.0312 47.0547C60.4844 47.5286 59.9922 48.0208 59.5547 48.5312L58.1875 47.3828C58.7344 46.6172 59.4089 45.7786 60.2109 44.8672C61.0495 43.9193 62.0521 43.026 63.2188 42.1875C64.3854 41.349 65.7161 40.6562 67.2109 40.1094C68.7422 39.526 70.4375 39.2344 72.2969 39.2344C73.901 39.2344 75.3047 39.4531 76.5078 39.8906C77.7109 40.2917 78.7135 40.8568 79.5156 41.5859C80.3177 42.2786 80.9193 43.1172 81.3203 44.1016C81.7214 45.0495 81.9219 46.0703 81.9219 47.1641V83.6953C81.9219 84.2057 81.9948 84.7344 82.1406 85.2812C82.3229 85.7917 82.5599 86.2656 82.8516 86.7031C83.1797 87.1406 83.5807 87.5052 84.0547 87.7969C84.5286 88.0521 85.0938 88.1797 85.75 88.1797C86.8073 88.1797 87.8646 87.9062 88.9219 87.3594C89.9792 86.8125 90.9453 86.1745 91.8203 85.4453C92.6953 84.6797 93.4427 83.9323 94.0625 83.2031C94.7188 82.474 95.1927 81.9271 95.4844 81.5625V49.625C95.4844 49.2969 95.4661 48.9505 95.4297 48.5859C95.3932 48.1849 95.3021 47.8203 95.1562 47.4922C95.0104 47.1276 94.7917 46.8359 94.5 46.6172C94.2083 46.3984 93.7891 46.2891 93.2422 46.2891C92.5859 46.2891 91.9661 46.5443 91.3828 47.0547C90.8359 47.5286 90.3438 48.0208 89.9062 48.5312L88.5391 47.3828C89.0859 46.6172 89.7604 45.7786 90.5625 44.8672C91.401 43.9193 92.4036 43.026 93.5703 42.1875C94.737 41.349 96.0677 40.6562 97.5625 40.1094C99.0938 39.526 100.789 39.2344 102.648 39.2344C104.253 39.2344 105.656 39.4531 106.859 39.8906C108.062 40.2917 109.065 40.8568 109.867 41.5859C110.669 42.2786 111.271 43.1172 111.672 44.1016C112.073 45.0495 112.273 46.0703 112.273 47.1641V86.4844ZM173.414 91.1875C173.414 91.6615 173.341 92.2266 173.195 92.8828C173.049 93.5391 172.685 94.1589 172.102 94.7422C171.555 95.3255 170.716 95.8177 169.586 96.2188C168.456 96.6562 166.924 96.875 164.992 96.875C163.06 96.875 161.529 96.638 160.398 96.1641C159.305 95.7266 158.466 95.1979 157.883 94.5781C157.336 93.9583 156.99 93.3203 156.844 92.6641C156.698 92.0078 156.625 91.4792 156.625 91.0781V52.4141C156.625 51.9036 156.552 51.3932 156.406 50.8828C156.26 50.3359 156.042 49.8438 155.75 49.4062C155.458 48.9688 155.094 48.6224 154.656 48.3672C154.219 48.0755 153.708 47.9297 153.125 47.9297C152.141 47.9297 151.174 48.2214 150.227 48.8047C149.279 49.3516 148.385 49.9896 147.547 50.7188C146.745 51.4479 146.034 52.1771 145.414 52.9062C144.831 53.6354 144.411 54.1823 144.156 54.5469V91.1875C144.156 91.6615 144.083 92.2266 143.938 92.8828C143.792 93.5391 143.427 94.1589 142.844 94.7422C142.297 95.3255 141.458 95.8177 140.328 96.2188C139.234 96.6562 137.721 96.875 135.789 96.875C133.857 96.875 132.326 96.638 131.195 96.1641C130.102 95.7266 129.263 95.1979 128.68 94.5781C128.096 93.9583 127.732 93.3203 127.586 92.6641C127.44 92.0078 127.367 91.4792 127.367 91.0781V48.8594C127.367 47.8021 127.112 46.8906 126.602 46.125C126.128 45.3229 125.307 44.9219 124.141 44.9219C123.521 44.9219 122.992 45.0312 122.555 45.25C122.117 45.4688 121.643 45.7786 121.133 46.1797L119.984 44.8125C120.823 44.1198 121.753 43.4453 122.773 42.7891C123.831 42.0964 124.961 41.4948 126.164 40.9844C127.367 40.474 128.661 40.0547 130.047 39.7266C131.432 39.3984 132.891 39.2344 134.422 39.2344C136.792 39.2344 138.633 39.6354 139.945 40.4375C141.258 41.2031 142.224 42.1328 142.844 43.2266C143.464 44.3203 143.828 45.4688 143.938 46.6719C144.083 47.8385 144.156 48.8229 144.156 49.625C145.87 47.6927 147.711 45.9609 149.68 44.4297C150.482 43.7734 151.357 43.1354 152.305 42.5156C153.289 41.8958 154.292 41.349 155.312 40.875C156.333 40.3646 157.391 39.9635 158.484 39.6719C159.578 39.3802 160.672 39.2344 161.766 39.2344C163.88 39.2344 165.685 39.6172 167.18 40.3828C168.674 41.1484 169.878 42.0781 170.789 43.1719C171.701 44.2292 172.357 45.3594 172.758 46.5625C173.195 47.7292 173.414 48.75 173.414 49.625C175.164 47.6927 177.005 45.9609 178.938 44.4297C179.74 43.7734 180.615 43.1354 181.562 42.5156C182.51 41.8958 183.495 41.349 184.516 40.875C185.573 40.3646 186.63 39.9635 187.688 39.6719C188.781 39.3802 189.875 39.2344 190.969 39.2344C193.083 39.2344 194.888 39.6354 196.383 40.4375C197.878 41.2031 199.081 42.224 199.992 43.5C200.904 44.776 201.56 46.2161 201.961 47.8203C202.398 49.4245 202.617 51.0286 202.617 52.6328V86.4844C202.617 86.8125 202.635 87.1771 202.672 87.5781C202.708 87.9427 202.799 88.3073 202.945 88.6719C203.091 89 203.31 89.2734 203.602 89.4922C203.93 89.7109 204.349 89.8203 204.859 89.8203C205.552 89.8203 206.172 89.5833 206.719 89.1094C207.266 88.599 207.776 88.0885 208.25 87.5781L209.562 88.7266C209.052 89.4922 208.378 90.349 207.539 91.2969C206.701 92.2083 205.698 93.0833 204.531 93.9219C203.401 94.7604 202.07 95.4531 200.539 96C199.044 96.5833 197.349 96.875 195.453 96.875C193.849 96.875 192.445 96.6562 191.242 96.2188C190.076 95.8177 189.073 95.2708 188.234 94.5781C187.432 93.849 186.831 93.0104 186.43 92.0625C186.029 91.0781 185.828 90.0391 185.828 88.9453V52.4141C185.828 51.9036 185.755 51.3932 185.609 50.8828C185.464 50.3359 185.245 49.8438 184.953 49.4062C184.698 48.9688 184.352 48.6224 183.914 48.3672C183.477 48.0755 182.966 47.9297 182.383 47.9297C181.398 47.9297 180.414 48.2214 179.43 48.8047C178.482 49.3516 177.589 49.9896 176.75 50.7188C175.948 51.4479 175.255 52.1771 174.672 52.9062C174.089 53.6354 173.669 54.1823 173.414 54.5469V91.1875ZM263.758 91.1875C263.758 91.6615 263.685 92.2266 263.539 92.8828C263.393 93.5391 263.029 94.1589 262.445 94.7422C261.898 95.3255 261.06 95.8177 259.93 96.2188C258.799 96.6562 257.268 96.875 255.336 96.875C253.404 96.875 251.872 96.638 250.742 96.1641C249.648 95.7266 248.81 95.1979 248.227 94.5781C247.68 93.9583 247.333 93.3203 247.188 92.6641C247.042 92.0078 246.969 91.4792 246.969 91.0781V52.4141C246.969 51.9036 246.896 51.3932 246.75 50.8828C246.604 50.3359 246.385 49.8438 246.094 49.4062C245.802 48.9688 245.438 48.6224 245 48.3672C244.562 48.0755 244.052 47.9297 243.469 47.9297C242.484 47.9297 241.518 48.2214 240.57 48.8047C239.622 49.3516 238.729 49.9896 237.891 50.7188C237.089 51.4479 236.378 52.1771 235.758 52.9062C235.174 53.6354 234.755 54.1823 234.5 54.5469V91.1875C234.5 91.6615 234.427 92.2266 234.281 92.8828C234.135 93.5391 233.771 94.1589 233.188 94.7422C232.641 95.3255 231.802 95.8177 230.672 96.2188C229.578 96.6562 228.065 96.875 226.133 96.875C224.201 96.875 222.669 96.638 221.539 96.1641C220.445 95.7266 219.607 95.1979 219.023 94.5781C218.44 93.9583 218.076 93.3203 217.93 92.6641C217.784 92.0078 217.711 91.4792 217.711 91.0781V48.8594C217.711 47.8021 217.456 46.8906 216.945 46.125C216.471 45.3229 215.651 44.9219 214.484 44.9219C213.865 44.9219 213.336 45.0312 212.898 45.25C212.461 45.4688 211.987 45.7786 211.477 46.1797L210.328 44.8125C211.167 44.1198 212.096 43.4453 213.117 42.7891C214.174 42.0964 215.305 41.4948 216.508 40.9844C217.711 40.474 219.005 40.0547 220.391 39.7266C221.776 39.3984 223.234 39.2344 224.766 39.2344C227.135 39.2344 228.977 39.6354 230.289 40.4375C231.602 41.2031 232.568 42.1328 233.188 43.2266C233.807 44.3203 234.172 45.4688 234.281 46.6719C234.427 47.8385 234.5 48.8229 234.5 49.625C236.214 47.6927 238.055 45.9609 240.023 44.4297C240.826 43.7734 241.701 43.1354 242.648 42.5156C243.633 41.8958 244.635 41.349 245.656 40.875C246.677 40.3646 247.734 39.9635 248.828 39.6719C249.922 39.3802 251.016 39.2344 252.109 39.2344C254.224 39.2344 256.029 39.6172 257.523 40.3828C259.018 41.1484 260.221 42.0781 261.133 43.1719C262.044 44.2292 262.701 45.3594 263.102 46.5625C263.539 47.7292 263.758 48.75 263.758 49.625C265.508 47.6927 267.349 45.9609 269.281 44.4297C270.083 43.7734 270.958 43.1354 271.906 42.5156C272.854 41.8958 273.839 41.349 274.859 40.875C275.917 40.3646 276.974 39.9635 278.031 39.6719C279.125 39.3802 280.219 39.2344 281.312 39.2344C283.427 39.2344 285.232 39.6354 286.727 40.4375C288.221 41.2031 289.424 42.224 290.336 43.5C291.247 44.776 291.904 46.2161 292.305 47.8203C292.742 49.4245 292.961 51.0286 292.961 52.6328V86.4844C292.961 86.8125 292.979 87.1771 293.016 87.5781C293.052 87.9427 293.143 88.3073 293.289 88.6719C293.435 89 293.654 89.2734 293.945 89.4922C294.273 89.7109 294.693 89.8203 295.203 89.8203C295.896 89.8203 296.516 89.5833 297.062 89.1094C297.609 88.599 298.12 88.0885 298.594 87.5781L299.906 88.7266C299.396 89.4922 298.721 90.349 297.883 91.2969C297.044 92.2083 296.042 93.0833 294.875 93.9219C293.745 94.7604 292.414 95.4531 290.883 96C289.388 96.5833 287.693 96.875 285.797 96.875C284.193 96.875 282.789 96.6562 281.586 96.2188C280.419 95.8177 279.417 95.2708 278.578 94.5781C277.776 93.849 277.174 93.0104 276.773 92.0625C276.372 91.0781 276.172 90.0391 276.172 88.9453V52.4141C276.172 51.9036 276.099 51.3932 275.953 50.8828C275.807 50.3359 275.589 49.8438 275.297 49.4062C275.042 48.9688 274.695 48.6224 274.258 48.3672C273.82 48.0755 273.31 47.9297 272.727 47.9297C271.742 47.9297 270.758 48.2214 269.773 48.8047C268.826 49.3516 267.932 49.9896 267.094 50.7188C266.292 51.4479 265.599 52.1771 265.016 52.9062C264.432 53.6354 264.013 54.1823 263.758 54.5469V91.1875ZM321.508 70.8984C321.508 72.0651 321.672 73.3411 322 74.7266C322.365 76.0755 322.875 77.4427 323.531 78.8281C324.188 80.2135 324.99 81.5443 325.938 82.8203C326.922 84.0599 328.034 85.1719 329.273 86.1562C330.549 87.1406 331.953 87.9245 333.484 88.5078C335.016 89.0911 336.693 89.3828 338.516 89.3828C339.792 89.3828 340.977 89.237 342.07 88.9453C343.164 88.6536 344.185 88.2526 345.133 87.7422C346.081 87.2318 346.992 86.6484 347.867 85.9922C348.742 85.2995 349.617 84.5703 350.492 83.8047L351.859 85.1172C351.021 86.2474 349.945 87.487 348.633 88.8359C347.32 90.1849 345.734 91.4609 343.875 92.6641C342.016 93.8307 339.846 94.8151 337.367 95.6172C334.888 96.3828 332.062 96.7656 328.891 96.7656C325.719 96.7656 322.62 96.2005 319.594 95.0703C316.604 93.9036 313.943 92.1719 311.609 89.875C309.276 87.5781 307.398 84.7161 305.977 81.2891C304.591 77.862 303.898 73.8516 303.898 69.2578C303.898 65.9401 304.318 62.8958 305.156 60.125C305.995 57.3542 307.125 54.8568 308.547 52.6328C310.005 50.4089 311.682 48.4583 313.578 46.7812C315.51 45.1042 317.534 43.7188 319.648 42.625C321.763 41.4948 323.914 40.6562 326.102 40.1094C328.326 39.526 330.458 39.2344 332.5 39.2344C335.198 39.2344 337.549 39.526 339.555 40.1094C341.56 40.6927 343.219 41.4766 344.531 42.4609C345.88 43.4453 346.883 44.5938 347.539 45.9062C348.195 47.1823 348.523 48.5312 348.523 49.9531C348.523 51.6667 348.031 53.2161 347.047 54.6016C346.062 55.9505 344.75 57.1354 343.109 58.1562L321.508 70.8984ZM332.5 59.7969C332.974 59.5052 333.357 59.2318 333.648 58.9766C333.977 58.6849 334.232 58.3568 334.414 57.9922C334.596 57.5911 334.724 57.1172 334.797 56.5703C334.906 55.987 334.961 55.276 334.961 54.4375C334.961 53.526 334.852 52.5234 334.633 51.4297C334.451 50.2995 334.122 49.2422 333.648 48.2578C333.174 47.2734 332.573 46.4531 331.844 45.7969C331.115 45.1406 330.24 44.8125 329.219 44.8125C327.906 44.8125 326.776 45.2135 325.828 46.0156C324.917 46.7812 324.151 47.7839 323.531 49.0234C322.948 50.263 322.474 51.6849 322.109 53.2891C321.781 54.8568 321.526 56.4427 321.344 58.0469C321.161 59.651 321.052 61.2005 321.016 62.6953C320.979 64.1536 320.961 65.3932 320.961 66.4141L332.5 59.7969ZM376.688 50.7734C378.073 48.6589 379.549 46.7448 381.117 45.0312C381.773 44.3021 382.484 43.5911 383.25 42.8984C384.016 42.2057 384.799 41.5859 385.602 41.0391C386.44 40.4922 387.297 40.0547 388.172 39.7266C389.047 39.3984 389.922 39.2344 390.797 39.2344C392.656 39.2344 394.115 39.7995 395.172 40.9297C396.229 42.0234 396.758 43.5729 396.758 45.5781C396.758 46.8177 396.648 48.0208 396.43 49.1875C396.247 50.3177 395.865 51.7031 395.281 53.3438H393.75C393.531 52.2135 393.021 51.2839 392.219 50.5547C391.417 49.7891 390.25 49.4062 388.719 49.4062C387.589 49.4062 386.477 49.625 385.383 50.0625C384.289 50.4635 383.214 50.974 382.156 51.5938C381.135 52.2135 380.151 52.888 379.203 53.6172C378.292 54.3464 377.453 55.0391 376.688 55.6953V91.1875C376.688 91.6615 376.615 92.2266 376.469 92.8828C376.323 93.5391 375.958 94.1589 375.375 94.7422C374.828 95.3255 373.99 95.8177 372.859 96.2188C371.766 96.6562 370.253 96.875 368.32 96.875C366.388 96.875 364.857 96.638 363.727 96.1641C362.633 95.7266 361.794 95.1979 361.211 94.5781C360.628 93.9583 360.263 93.3203 360.117 92.6641C359.971 92.0078 359.898 91.4792 359.898 91.0781V48.8594C359.898 47.8021 359.643 46.8906 359.133 46.125C358.659 45.3229 357.839 44.9219 356.672 44.9219C356.052 44.9219 355.523 45.0312 355.086 45.25C354.648 45.4688 354.174 45.7786 353.664 46.1797L352.516 44.8125C353.354 44.1198 354.284 43.4453 355.305 42.7891C356.362 42.0964 357.492 41.4948 358.695 40.9844C359.898 40.474 361.193 40.0547 362.578 39.7266C363.964 39.3984 365.422 39.2344 366.953 39.2344C368.521 39.2344 369.852 39.4531 370.945 39.8906C372.076 40.2917 372.987 40.8385 373.68 41.5312C374.409 42.1875 374.974 42.9349 375.375 43.7734C375.776 44.612 376.068 45.4688 376.25 46.3438C376.469 47.1823 376.596 48.0026 376.633 48.8047C376.669 49.5703 376.688 50.2266 376.688 50.7734ZM23.8438 215.93C25.3021 215.93 26.7422 215.656 28.1641 215.109C29.5859 214.599 30.8438 213.724 31.9375 212.484C33.0677 211.281 33.9792 209.695 34.6719 207.727C35.3646 205.758 35.7109 203.352 35.7109 200.508C35.7109 197.445 34.9453 194.474 33.4141 191.594C31.9193 188.714 30.0234 185.888 27.7266 183.117C25.4661 180.31 23.0052 177.539 20.3438 174.805C17.7188 172.034 15.2578 169.227 12.9609 166.383C10.7005 163.503 8.80469 160.549 7.27344 157.523C5.77865 154.461 5.03125 151.271 5.03125 147.953C5.03125 144.635 5.63281 141.646 6.83594 138.984C8.07552 136.286 9.73438 134.008 11.8125 132.148C13.9271 130.253 16.3698 128.794 19.1406 127.773C21.9479 126.753 24.9375 126.242 28.1094 126.242C31.5 126.242 34.5078 126.607 37.1328 127.336C39.7943 128.029 42.0365 128.995 43.8594 130.234C45.7188 131.438 47.1224 132.878 48.0703 134.555C49.0182 136.195 49.4922 137.945 49.4922 139.805C49.4922 140.68 49.3646 141.591 49.1094 142.539C48.8542 143.451 48.4531 144.289 47.9062 145.055C47.3594 145.82 46.6667 146.458 45.8281 146.969C44.9896 147.479 44.0052 147.734 42.875 147.734C41.526 147.734 40.5234 147.333 39.8672 146.531C39.2474 145.693 38.7734 144.672 38.4453 143.469C38.1536 142.266 37.8984 140.953 37.6797 139.531C37.4609 138.073 37.1146 136.742 36.6406 135.539C36.1667 134.336 35.4557 133.333 34.5078 132.531C33.5599 131.693 32.1745 131.273 30.3516 131.273C29.3672 131.273 28.3828 131.492 27.3984 131.93C26.4505 132.367 25.5755 133.042 24.7734 133.953C24.0078 134.828 23.388 135.958 22.9141 137.344C22.4401 138.729 22.2031 140.37 22.2031 142.266C22.2031 144.453 22.6589 146.586 23.5703 148.664C24.4818 150.742 25.6849 152.802 27.1797 154.844C28.6745 156.849 30.3698 158.872 32.2656 160.914C34.1979 162.919 36.1484 164.961 38.1172 167.039C40.1224 169.081 42.0729 171.195 43.9688 173.383C45.901 175.534 47.6146 177.776 49.1094 180.109C50.6042 182.443 51.8073 184.885 52.7188 187.438C53.6302 189.99 54.0859 192.669 54.0859 195.477C54.0859 199.596 53.2839 203.279 51.6797 206.523C50.112 209.732 47.9609 212.43 45.2266 214.617C42.5286 216.841 39.3568 218.536 35.7109 219.703C32.0651 220.87 28.1823 221.453 24.0625 221.453C20.3438 221.453 17.0443 220.979 14.1641 220.031C11.3203 219.12 8.91406 217.898 6.94531 216.367C4.97656 214.836 3.48177 213.086 2.46094 211.117C1.47656 209.185 0.984375 207.18 0.984375 205.102C0.984375 204.227 1.11198 203.297 1.36719 202.312C1.65885 201.292 2.0599 200.362 2.57031 199.523C3.11719 198.685 3.79167 197.992 4.59375 197.445C5.39583 196.862 6.32552 196.57 7.38281 196.57C8.47656 196.57 9.35156 196.844 10.0078 197.391C10.7005 197.938 11.2474 198.667 11.6484 199.578C12.0495 200.49 12.3776 201.529 12.6328 202.695C12.888 203.862 13.1615 205.047 13.4531 206.25C13.7448 207.453 14.1094 208.638 14.5469 209.805C14.9844 210.971 15.5859 212.01 16.3516 212.922C17.1172 213.833 18.1016 214.562 19.3047 215.109C20.5078 215.656 22.0208 215.93 23.8438 215.93ZM65.1328 160.859C65.1328 159.802 64.8776 158.891 64.3672 158.125C63.8932 157.323 63.0729 156.922 61.9062 156.922C61.2865 156.922 60.7578 157.031 60.3203 157.25C59.8828 157.469 59.4089 157.779 58.8984 158.18L57.75 156.812C58.5885 156.12 59.5182 155.445 60.5391 154.789C61.5964 154.096 62.7266 153.495 63.9297 152.984C65.1328 152.474 66.4271 152.055 67.8125 151.727C69.1979 151.398 70.6562 151.234 72.1875 151.234C73.8281 151.234 75.2318 151.49 76.3984 152C77.5651 152.51 78.5312 153.13 79.2969 153.859C80.099 154.552 80.7005 155.299 81.1016 156.102C81.5026 156.867 81.7396 157.523 81.8125 158.07C82.5417 157.049 83.3984 156.12 84.3828 155.281C85.4036 154.443 86.4974 153.732 87.6641 153.148C88.8672 152.529 90.125 152.055 91.4375 151.727C92.7865 151.398 94.1719 151.234 95.5938 151.234C98.5104 151.234 101.154 151.836 103.523 153.039C105.893 154.242 107.917 156.029 109.594 158.398C111.307 160.768 112.62 163.703 113.531 167.203C114.443 170.703 114.898 174.75 114.898 179.344C114.898 184.667 114.333 189.206 113.203 192.961C112.109 196.68 110.651 199.724 108.828 202.094C107.042 204.464 104.982 206.195 102.648 207.289C100.352 208.346 98 208.875 95.5938 208.875C93.5885 208.875 91.8203 208.674 90.2891 208.273C88.7943 207.872 87.5 207.38 86.4062 206.797C85.3125 206.214 84.401 205.63 83.6719 205.047C82.9427 204.427 82.3594 203.917 81.9219 203.516V230.203C81.9219 230.677 81.849 231.242 81.7031 231.898C81.5573 232.555 81.1927 233.174 80.6094 233.758C80.0625 234.378 79.224 234.906 78.0938 235.344C77 235.781 75.487 236 73.5547 236C71.6224 236 70.0911 235.763 68.9609 235.289C67.8672 234.852 67.0286 234.305 66.4453 233.648C65.862 233.029 65.4974 232.391 65.3516 231.734C65.2057 231.115 65.1328 230.604 65.1328 230.203V160.859ZM81.9219 195.695C81.9219 195.987 82.0495 196.497 82.3047 197.227C82.5599 197.956 82.9609 198.703 83.5078 199.469C84.0547 200.234 84.7474 200.927 85.5859 201.547C86.4609 202.13 87.5182 202.422 88.7578 202.422C90.362 202.422 91.7292 201.82 92.8594 200.617C93.9896 199.378 94.9193 197.719 95.6484 195.641C96.3776 193.526 96.9062 191.083 97.2344 188.312C97.5625 185.505 97.7266 182.516 97.7266 179.344C97.7266 175.443 97.5078 172.143 97.0703 169.445C96.6693 166.747 96.0677 164.578 95.2656 162.938C94.4635 161.26 93.4974 160.057 92.3672 159.328C91.2734 158.562 90.0339 158.18 88.6484 158.18C87.8464 158.18 87.0443 158.417 86.2422 158.891C85.4401 159.328 84.7109 159.893 84.0547 160.586C83.4349 161.242 82.9245 161.99 82.5234 162.828C82.1224 163.667 81.9219 164.469 81.9219 165.234V195.695ZM139.398 182.898C139.398 184.065 139.562 185.341 139.891 186.727C140.255 188.076 140.766 189.443 141.422 190.828C142.078 192.214 142.88 193.544 143.828 194.82C144.812 196.06 145.924 197.172 147.164 198.156C148.44 199.141 149.844 199.924 151.375 200.508C152.906 201.091 154.583 201.383 156.406 201.383C157.682 201.383 158.867 201.237 159.961 200.945C161.055 200.654 162.076 200.253 163.023 199.742C163.971 199.232 164.883 198.648 165.758 197.992C166.633 197.299 167.508 196.57 168.383 195.805L169.75 197.117C168.911 198.247 167.836 199.487 166.523 200.836C165.211 202.185 163.625 203.461 161.766 204.664C159.906 205.831 157.737 206.815 155.258 207.617C152.779 208.383 149.953 208.766 146.781 208.766C143.609 208.766 140.51 208.201 137.484 207.07C134.495 205.904 131.833 204.172 129.5 201.875C127.167 199.578 125.289 196.716 123.867 193.289C122.482 189.862 121.789 185.852 121.789 181.258C121.789 177.94 122.208 174.896 123.047 172.125C123.885 169.354 125.016 166.857 126.438 164.633C127.896 162.409 129.573 160.458 131.469 158.781C133.401 157.104 135.424 155.719 137.539 154.625C139.654 153.495 141.805 152.656 143.992 152.109C146.216 151.526 148.349 151.234 150.391 151.234C153.089 151.234 155.44 151.526 157.445 152.109C159.451 152.693 161.109 153.477 162.422 154.461C163.771 155.445 164.773 156.594 165.43 157.906C166.086 159.182 166.414 160.531 166.414 161.953C166.414 163.667 165.922 165.216 164.938 166.602C163.953 167.951 162.641 169.135 161 170.156L139.398 182.898ZM150.391 171.797C150.865 171.505 151.247 171.232 151.539 170.977C151.867 170.685 152.122 170.357 152.305 169.992C152.487 169.591 152.615 169.117 152.688 168.57C152.797 167.987 152.852 167.276 152.852 166.438C152.852 165.526 152.742 164.523 152.523 163.43C152.341 162.299 152.013 161.242 151.539 160.258C151.065 159.273 150.464 158.453 149.734 157.797C149.005 157.141 148.13 156.812 147.109 156.812C145.797 156.812 144.667 157.214 143.719 158.016C142.807 158.781 142.042 159.784 141.422 161.023C140.839 162.263 140.365 163.685 140 165.289C139.672 166.857 139.417 168.443 139.234 170.047C139.052 171.651 138.943 173.201 138.906 174.695C138.87 176.154 138.852 177.393 138.852 178.414L150.391 171.797ZM210.766 170.156C209.635 170.156 208.688 169.992 207.922 169.664C207.156 169.299 206.536 168.826 206.062 168.242C205.589 167.659 205.242 167.021 205.023 166.328C204.805 165.599 204.695 164.852 204.695 164.086C204.695 163.102 204.75 162.154 204.859 161.242C205.005 160.331 205.023 159.51 204.914 158.781C204.841 158.052 204.568 157.469 204.094 157.031C203.62 156.594 202.781 156.375 201.578 156.375C200.302 156.375 198.953 156.74 197.531 157.469C196.109 158.198 194.815 159.346 193.648 160.914C192.482 162.482 191.516 164.505 190.75 166.984C189.984 169.427 189.602 172.38 189.602 175.844C189.602 179.672 189.948 183.172 190.641 186.344C191.37 189.479 192.445 192.159 193.867 194.383C195.289 196.607 197.057 198.339 199.172 199.578C201.286 200.781 203.766 201.383 206.609 201.383C207.885 201.383 209.089 201.237 210.219 200.945C211.385 200.654 212.479 200.253 213.5 199.742C214.521 199.232 215.487 198.648 216.398 197.992C217.346 197.299 218.258 196.57 219.133 195.805L220.5 197.117C219.661 198.247 218.586 199.487 217.273 200.836C215.961 202.185 214.375 203.461 212.516 204.664C210.656 205.831 208.487 206.815 206.008 207.617C203.529 208.383 200.703 208.766 197.531 208.766C194.359 208.766 191.26 208.164 188.234 206.961C185.245 205.721 182.583 203.935 180.25 201.602C177.917 199.268 176.039 196.443 174.617 193.125C173.232 189.771 172.539 185.961 172.539 181.695C172.539 178.378 172.958 175.333 173.797 172.562C174.635 169.755 175.766 167.221 177.188 164.961C178.646 162.701 180.323 160.714 182.219 159C184.151 157.286 186.174 155.865 188.289 154.734C190.404 153.568 192.555 152.693 194.742 152.109C196.966 151.526 199.099 151.234 201.141 151.234C203.839 151.234 206.19 151.544 208.195 152.164C210.201 152.784 211.859 153.604 213.172 154.625C214.521 155.646 215.523 156.831 216.18 158.18C216.836 159.492 217.164 160.859 217.164 162.281C217.164 163.339 217.018 164.359 216.727 165.344C216.471 166.292 216.07 167.13 215.523 167.859C215.013 168.552 214.357 169.117 213.555 169.555C212.753 169.956 211.823 170.156 210.766 170.156ZM245.328 203.078C245.328 203.552 245.237 204.135 245.055 204.828C244.909 205.484 244.526 206.122 243.906 206.742C243.323 207.326 242.466 207.818 241.336 208.219C240.206 208.656 238.674 208.875 236.742 208.875C234.81 208.875 233.297 208.638 232.203 208.164C231.109 207.727 230.289 207.198 229.742 206.578C229.195 205.958 228.849 205.32 228.703 204.664C228.594 204.008 228.539 203.479 228.539 203.078V160.859C228.539 159.802 228.284 158.891 227.773 158.125C227.299 157.323 226.479 156.922 225.312 156.922C224.693 156.922 224.164 157.031 223.727 157.25C223.289 157.469 222.815 157.779 222.305 158.18L221.156 156.812C221.995 156.12 222.924 155.445 223.945 154.789C225.003 154.096 226.133 153.495 227.336 152.984C228.539 152.474 229.833 152.055 231.219 151.727C232.604 151.398 234.062 151.234 235.594 151.234C237.964 151.234 239.805 151.562 241.117 152.219C242.43 152.839 243.396 153.622 244.016 154.57C244.635 155.482 245 156.466 245.109 157.523C245.255 158.581 245.328 159.51 245.328 160.312V203.078ZM226.844 138.766C226.844 137.745 227.062 136.779 227.5 135.867C227.974 134.919 228.612 134.099 229.414 133.406C230.253 132.714 231.201 132.167 232.258 131.766C233.352 131.365 234.536 131.164 235.812 131.164C237.052 131.164 238.201 131.365 239.258 131.766C240.352 132.167 241.299 132.714 242.102 133.406C242.904 134.099 243.523 134.919 243.961 135.867C244.435 136.779 244.672 137.745 244.672 138.766C244.672 139.823 244.435 140.807 243.961 141.719C243.523 142.63 242.904 143.432 242.102 144.125C241.299 144.781 240.352 145.31 239.258 145.711C238.201 146.112 237.052 146.312 235.812 146.312C234.536 146.312 233.352 146.112 232.258 145.711C231.201 145.31 230.253 144.781 229.414 144.125C228.612 143.432 227.974 142.63 227.5 141.719C227.062 140.807 226.844 139.823 226.844 138.766ZM283.773 179.672C283.773 178.76 283.482 178.068 282.898 177.594C282.315 177.12 281.568 176.883 280.656 176.883C279.38 176.883 278.159 177.174 276.992 177.758C275.862 178.341 274.859 179.198 273.984 180.328C273.109 181.458 272.417 182.862 271.906 184.539C271.396 186.18 271.141 188.094 271.141 190.281C271.141 192.396 271.286 194.146 271.578 195.531C271.906 196.917 272.326 198.029 272.836 198.867C273.383 199.669 274.003 200.234 274.695 200.562C275.388 200.891 276.117 201.055 276.883 201.055C277.831 201.055 278.724 200.818 279.562 200.344C280.401 199.833 281.13 199.195 281.75 198.43C282.37 197.664 282.862 196.807 283.227 195.859C283.591 194.911 283.773 193.964 283.773 193.016V179.672ZM275.078 155.719C273.839 155.719 272.69 155.865 271.633 156.156C270.576 156.448 269.664 156.812 268.898 157.25C268.133 157.688 267.531 158.18 267.094 158.727C266.656 159.237 266.438 159.729 266.438 160.203C266.438 160.75 266.711 161.151 267.258 161.406C267.841 161.625 268.479 161.898 269.172 162.227C269.865 162.518 270.484 162.956 271.031 163.539C271.615 164.086 271.906 164.943 271.906 166.109C271.906 166.875 271.742 167.586 271.414 168.242C271.122 168.862 270.703 169.427 270.156 169.938C269.646 170.411 269.026 170.794 268.297 171.086C267.604 171.341 266.875 171.469 266.109 171.469C264.068 171.469 262.409 170.776 261.133 169.391C259.893 168.005 259.273 166.164 259.273 163.867C259.273 161.643 259.857 159.747 261.023 158.18C262.19 156.576 263.703 155.263 265.562 154.242C267.458 153.221 269.591 152.474 271.961 152C274.331 151.49 276.701 151.234 279.07 151.234C281.914 151.234 284.63 151.544 287.219 152.164C289.807 152.784 292.086 153.768 294.055 155.117C296.06 156.466 297.646 158.18 298.812 160.258C300.016 162.336 300.617 164.852 300.617 167.805V198.703C300.617 199.031 300.635 199.396 300.672 199.797C300.708 200.198 300.799 200.562 300.945 200.891C301.091 201.219 301.31 201.492 301.602 201.711C301.893 201.93 302.312 202.039 302.859 202.039C303.516 202.039 304.117 201.802 304.664 201.328C305.247 200.818 305.758 200.307 306.195 199.797L307.562 200.945C307.016 201.711 306.359 202.549 305.594 203.461C304.828 204.372 303.898 205.229 302.805 206.031C301.711 206.833 300.435 207.508 298.977 208.055C297.518 208.602 295.859 208.875 294 208.875C291.703 208.875 289.661 208.201 287.875 206.852C286.089 205.466 284.922 203.352 284.375 200.508C283.208 202.076 281.987 203.388 280.711 204.445C279.471 205.503 278.195 206.359 276.883 207.016C275.57 207.672 274.24 208.146 272.891 208.438C271.578 208.729 270.247 208.875 268.898 208.875C267.148 208.875 265.453 208.602 263.812 208.055C262.172 207.508 260.695 206.651 259.383 205.484C258.107 204.281 257.068 202.732 256.266 200.836C255.5 198.94 255.117 196.625 255.117 193.891C255.117 190.573 255.773 187.857 257.086 185.742C258.398 183.628 260.112 181.859 262.227 180.438C264.378 178.979 266.802 177.74 269.5 176.719C272.234 175.698 275.023 174.622 277.867 173.492C279.982 172.654 281.513 171.414 282.461 169.773C283.445 168.096 283.938 166.383 283.938 164.633C283.938 161.935 283.135 159.784 281.531 158.18C279.964 156.539 277.812 155.719 275.078 155.719ZM331.844 203.188C331.844 203.661 331.753 204.227 331.57 204.883C331.424 205.539 331.042 206.159 330.422 206.742C329.839 207.326 328.964 207.818 327.797 208.219C326.667 208.656 325.135 208.875 323.203 208.875C321.271 208.875 319.758 208.638 318.664 208.164C317.57 207.727 316.75 207.198 316.203 206.578C315.693 205.958 315.365 205.32 315.219 204.664C315.109 204.008 315.055 203.479 315.055 203.078V132.531C315.055 131.474 314.799 130.562 314.289 129.797C313.815 128.995 312.995 128.594 311.828 128.594C311.208 128.594 310.661 128.703 310.188 128.922C309.75 129.104 309.276 129.396 308.766 129.797L307.672 128.484C308.51 127.792 309.44 127.117 310.461 126.461C311.482 125.768 312.594 125.167 313.797 124.656C315.036 124.146 316.349 123.727 317.734 123.398C319.12 123.07 320.578 122.906 322.109 122.906C324.479 122.906 326.32 123.234 327.633 123.891C328.945 124.51 329.911 125.294 330.531 126.242C331.151 127.154 331.516 128.138 331.625 129.195C331.771 130.216 331.844 131.128 331.844 131.93V203.188ZM350.055 199.688C350.055 198.411 350.292 197.208 350.766 196.078C351.24 194.948 351.878 193.964 352.68 193.125C353.518 192.286 354.503 191.63 355.633 191.156C356.763 190.646 357.966 190.391 359.242 190.391C360.518 190.391 361.721 190.646 362.852 191.156C363.982 191.63 364.966 192.286 365.805 193.125C366.643 193.964 367.299 194.948 367.773 196.078C368.284 197.208 368.539 198.411 368.539 199.688C368.539 201 368.284 202.221 367.773 203.352C367.299 204.445 366.643 205.411 365.805 206.25C364.966 207.052 363.982 207.69 362.852 208.164C361.721 208.638 360.518 208.875 359.242 208.875C357.966 208.875 356.763 208.638 355.633 208.164C354.503 207.69 353.518 207.052 352.68 206.25C351.878 205.411 351.24 204.445 350.766 203.352C350.292 202.221 350.055 201 350.055 199.688ZM350.492 131.711C350.492 131.346 350.565 130.854 350.711 130.234C350.857 129.615 351.203 129.013 351.75 128.43C352.297 127.81 353.117 127.299 354.211 126.898C355.341 126.461 356.872 126.242 358.805 126.242C360.737 126.242 362.268 126.443 363.398 126.844C364.565 127.208 365.458 127.682 366.078 128.266C366.698 128.812 367.099 129.414 367.281 130.07C367.464 130.69 367.536 131.237 367.5 131.711C367.281 134.883 367.026 138.055 366.734 141.227C366.479 144.398 366.188 147.497 365.859 150.523C365.531 153.549 365.185 156.484 364.82 159.328C364.456 162.135 364.109 164.779 363.781 167.258C362.979 173.055 362.141 178.615 361.266 183.938H357.219C356.271 178.615 355.359 173.055 354.484 167.258C354.12 164.779 353.737 162.135 353.336 159.328C352.971 156.484 352.607 153.549 352.242 150.523C351.878 147.461 351.549 144.344 351.258 141.172C350.966 138 350.711 134.846 350.492 131.711Z" fill="white"/>
</svg>
